<?xml version="1.0" standalone="no"?>
<!DOCTYPE svg PUBLIC "-//W3C//DTD SVG 20010904//EN"
 "http://www.w3.org/TR/2001/REC-SVG-20010904/DTD/svg10.dtd">
<svg version="1.0" xmlns="http://www.w3.org/2000/svg"
 width="167.000000pt" height="192.000000pt" viewBox="0 0 167.000000 192.000000"
 preserveAspectRatio="xMidYMid meet">
<metadata>
Created by potrace 1.16, written by Peter Selinger 2001-2019
</metadata>
<g transform="translate(0.000000,192.000000) scale(0.100000,-0.100000)"
fill="#000000" stroke="none">
<path d="M727 1789 c-55 -9 -82 -24 -149 -87 -49 -46 -72 -94 -70 -149 2 -58
42 -104 42 -49 0 13 15 46 33 72 30 46 35 50 97 61 70 14 196 8 218 -10 8 -6
23 -29 34 -51 11 -23 26 -44 32 -48 6 -4 11 -30 12 -58 0 -27 4 -50 7 -51 22
-2 27 17 29 126 3 113 2 122 -20 150 -54 68 -167 108 -265 94z"/>
<path d="M968 1073 c-6 -197 -4 -187 -51 -294 -38 -87 -47 -101 -54 -83 -4 12
-46 55 -93 96 -79 69 -87 79 -105 139 -11 35 -22 87 -25 114 l-5 50 -19 -34
c-16 -31 -17 -40 -6 -88 7 -29 10 -56 7 -60 -4 -3 -10 9 -14 28 -7 33 -7 33
-14 9 -6 -22 -7 -21 -8 10 -1 33 -2 33 -15 14 -8 -11 -17 -37 -21 -57 -4 -20
-10 -37 -14 -37 -18 0 -19 16 -2 60 l18 48 -29 -10 c-17 -6 -53 -26 -81 -45
-29 -20 -62 -36 -74 -38 -30 -3 -102 -51 -110 -73 -3 -9 -19 -46 -36 -82 -16
-36 -32 -85 -35 -108 -3 -31 -8 -40 -14 -30 -6 8 -7 -3 -4 -32 3 -25 0 -83 -7
-130 -7 -47 -11 -92 -9 -101 2 -13 21 -17 91 -22 48 -3 104 -12 125 -21 41
-17 47 -25 13 -19 -20 4 -25 -1 -36 -39 -7 -24 -22 -51 -32 -61 -25 -24 -24
-59 3 -84 55 -51 259 -93 448 -93 191 0 333 30 493 103 59 26 68 33 62 51 -3
12 -8 65 -11 119 -2 59 -12 121 -23 155 -17 49 -17 58 -4 78 26 41 78 57 160
51 l74 -6 -7 32 c-3 18 -13 47 -20 66 -8 18 -14 44 -14 58 0 30 -39 123 -52
123 -5 0 -6 5 -3 10 3 6 1 10 -5 10 -6 0 -8 5 -5 10 3 6 -1 13 -9 16 -9 3 -14
10 -11 14 6 10 -70 72 -79 63 -3 -3 -6 -1 -6 6 0 8 -6 11 -16 7 -9 -3 -12 -2
-9 5 4 6 -3 7 -21 3 -17 -5 -25 -3 -21 3 4 6 1 11 -6 10 -34 -1 -48 4 -41 15
4 7 3 8 -4 4 -6 -4 -32 0 -57 9 -64 21 -64 20 -16 -29 24 -24 38 -46 33 -50
-6 -3 -32 21 -58 54 -26 33 -51 60 -55 60 -5 0 -9 10 -9 21 0 20 -25 48 -42
49 -5 0 -9 -21 -10 -47z"/>
</g>
</svg>
